# xmcd
#
# Track frame offsets:
#	150
#	18731
#	35721
#	55734
#	74602
#	90127
#	106527
#	123549
#	139528
#	158340
#	178105
#	198193
#	216812
#	232793
#	248388
#	265943
#	282465
#	297680
#	312878
#
# Disc length: 4363 seconds
#
# Revision: 1
# Processed by: cddbd v1.5.1PL0 Copyright (c) Steve Scherf et al.
# Submitted via: audiograbber 1.83.01
#
DISCID=07110913
DTITLE=陳奕迅 - 春風秋雨
DYEAR=1900
DGENRE=
TTITLE0=陳奕迅 - 春風秋雨
TTITLE1=陳奕迅 - 完美
TTITLE2=陳奕迅 - 改造人
TTITLE3=陳奕迅 - 非走不可
TTITLE4=陳奕迅 - 時光倒流二十年
TTITLE5=陳奕迅 - shall we talk
TTITLE6=陳奕迅 - 阿士不靈
TTITLE7=陳奕迅 - 衝口而出
TTITLE8=陳奕迅 - 大開眼界
TTITLE9=陳奕迅 - 活著多好
TTITLE10=陳奕迅 - 不如這樣
TTITLE11=陳奕迅 - 全世界失眠
TTITLE12=陳奕迅 - 失戀太少
TTITLE13=陳奕迅 - 單車
TTITLE14=陳奕迅 - 太空漫遊
TTITLE15=陳奕迅 - k歌之王
TTITLE16=陳奕迅 - 天使的禮物
TTITLE17=陳奕迅 - shall we dance
TTITLE18=陳奕迅 - 打得火熱
EXTD=
EXTT0=
EXTT1=
EXTT2=
EXTT3=
EXTT4=
EXTT5=
EXTT6=
EXTT7=
EXTT8=
EXTT9=
EXTT10=
EXTT11=
EXTT12=
EXTT13=
EXTT14=
EXTT15=
EXTT16=
EXTT17=
EXTT18=
PLAYORDER=
